<?xml version="1.0" standalone="no"?>
<!DOCTYPE svg PUBLIC "-//W3C//DTD SVG 20010904//EN"
 "http://www.w3.org/TR/2001/REC-SVG-20010904/DTD/svg10.dtd">
<svg version="1.0" xmlns="http://www.w3.org/2000/svg"
 width="1000.000000pt" height="1000.000000pt" viewBox="0 0 1000.000000 1000.000000"
 preserveAspectRatio="xMidYMid meet">
<metadata>
Created by potrace 1.15, written by Peter Selinger 2001-2017
</metadata>
<g transform="translate(0.000000,1000.000000) scale(0.100000,-0.100000)"
fill="#000000" stroke="none">
<path d="M3185 9971 c-47 -12 -148 -70 -199 -114 -53 -44 -132 -158 -147 -209
-12 -44 -11 -144 3 -193 6 -22 12 -89 13 -150 2 -92 6 -117 24 -152 27 -51 73
-92 113 -100 57 -11 80 -127 37 -196 -10 -18 -28 -51 -39 -74 -11 -23 -25 -45
-31 -48 -5 -4 -7 -15 -4 -25 3 -10 1 -21 -5 -25 -5 -3 -10 -19 -10 -34 0 -15
-3 -31 -7 -35 -4 -4 -8 -13 -8 -19 -1 -17 -15 -69 -25 -92 -5 -11 -9 -27 -9
-35 -2 -49 -15 -82 -36 -90 -13 -5 -26 -14 -30 -19 -3 -6 -13 -11 -22 -11 -9
0 -24 -6 -32 -14 -9 -8 -38 -19 -66 -24 -85 -17 -95 -20 -123 -40 -15 -11 -61
-31 -102 -46 -62 -22 -83 -35 -123 -78 -70 -78 -77 -87 -77 -102 0 -7 -9 -16
-19 -19 -38 -10 -45 7 -47 125 -2 62 -8 148 -15 191 -12 70 -11 80 6 115 23
45 23 45 29 202 3 69 7 143 9 165 3 26 -2 53 -14 77 -21 41 -24 104 -9 152 19
59 38 181 30 190 -5 5 -29 5 -54 2 -51 -8 -45 2 -81 -151 -24 -101 -31 -115
-59 -115 -26 0 -70 -45 -81 -82 -7 -27 -22 -63 -41 -99 -7 -14 -11 -28 -9 -31
6 -6 -43 -140 -55 -152 -6 -6 -10 -17 -10 -25 0 -9 -7 -28 -14 -43 -8 -16 -15
-36 -15 -45 0 -43 -11 -131 -20 -168 -6 -22 -11 -68 -11 -102 0 -34 -4 -64 -9
-68 -5 -3 -12 -36 -16 -73 -3 -37 -13 -91 -21 -119 -15 -52 -15 -139 1 -208 4
-16 11 -70 15 -120 5 -49 14 -101 21 -115 30 -66 45 -88 80 -125 47 -49 55
-101 33 -215 -8 -41 -14 -105 -14 -142 0 -36 -7 -102 -15 -145 -8 -43 -15
-115 -15 -160 0 -45 -6 -115 -14 -156 -8 -41 -16 -119 -17 -173 -1 -55 -7
-105 -12 -112 -6 -7 -12 -72 -15 -145 -2 -73 -9 -138 -15 -145 -5 -7 -14 -79
-18 -160 -4 -81 -10 -160 -14 -177 -3 -16 -9 -79 -11 -139 -3 -60 -9 -117 -13
-125 -4 -9 -9 -59 -10 -111 -1 -52 -9 -129 -17 -170 -8 -41 -14 -112 -14 -156
0 -45 -7 -117 -14 -160 -8 -44 -17 -124 -19 -179 -3 -55 -10 -118 -16 -140 -6
-22 -11 -91 -11 -153 0 -67 -5 -122 -12 -135 -6 -12 -15 -80 -19 -152 -3 -71
-11 -148 -18 -170 -6 -22 -11 -82 -11 -133 0 -51 -4 -102 -10 -112 -5 -10 -12
-82 -15 -160 -2 -77 -9 -149 -14 -159 -6 -9 -12 -72 -15 -138 -2 -67 -9 -130
-15 -141 -6 -12 -11 -70 -11 -129 0 -64 -6 -132 -15 -166 -8 -32 -15 -98 -15
-146 0 -49 -7 -124 -14 -167 -8 -44 -17 -124 -19 -179 -3 -55 -10 -118 -16
-140 -6 -22 -11 -92 -11 -156 0 -66 -4 -119 -10 -125 -6 -6 -15 -71 -20 -145
-9 -127 -20 -194 -33 -217 -4 -5 -19 -12 -34 -15 -42 -8 -73 -40 -73 -74 0
-37 14 -50 66 -61 39 -8 39 -8 42 -60 3 -45 7 -55 27 -64 33 -15 50 0 64 56
10 41 14 44 56 55 92 23 113 87 41 127 l-39 22 2 108 c1 59 7 117 13 128 7 12
15 86 19 166 4 80 10 159 15 175 4 17 9 77 11 135 2 58 6 112 10 120 7 17 8
29 17 168 3 57 10 111 15 120 4 9 9 67 10 127 1 61 9 144 17 185 8 41 14 105
14 141 0 37 6 102 14 145 8 44 17 124 19 179 3 55 10 118 16 140 6 22 11 91
11 153 0 67 5 122 12 135 6 12 15 81 19 152 4 72 10 144 14 160 4 17 11 89 16
160 4 72 11 173 14 225 3 52 13 134 21 183 7 48 14 116 14 151 0 35 7 100 15
143 8 43 15 114 15 157 0 44 7 116 14 160 8 45 17 124 20 176 2 52 9 113 14
135 6 22 13 87 15 145 2 58 9 123 16 145 6 22 11 91 11 153 0 67 5 122 12 135
6 12 15 81 19 152 4 72 10 144 13 160 3 17 8 86 11 154 3 69 9 129 14 135 4 6
9 56 10 111 1 55 7 123 13 150 5 28 13 103 17 168 7 104 11 120 31 142 20 21
77 46 115 50 62 7 116 19 120 26 3 4 11 6 18 3 7 -2 37 5 67 16 30 11 63 20
72 20 10 0 26 4 36 10 9 5 59 23 110 40 106 34 170 38 201 13 19 -16 72 -143
88 -210 3 -12 11 -28 19 -34 8 -6 14 -16 14 -22 0 -5 11 -25 25 -43 14 -18 25
-37 25 -43 0 -5 37 -50 83 -98 45 -48 91 -106 102 -128 11 -22 38 -62 60 -90
60 -76 65 -88 75 -198 9 -98 33 -181 65 -231 16 -24 11 -86 -8 -86 -14 0 -74
-66 -92 -100 -16 -31 -11 -80 11 -115 7 -11 17 -47 24 -80 6 -33 22 -76 34
-95 41 -67 49 -94 58 -210 0 -8 4 -19 8 -25 5 -5 9 -136 11 -290 1 -154 7
-285 12 -292 5 -7 6 -17 2 -23 -4 -6 -2 -16 3 -23 5 -7 12 -54 15 -106 3 -52
11 -99 16 -104 6 -6 11 -38 11 -72 0 -33 5 -78 11 -100 6 -22 12 -69 15 -105
3 -36 12 -105 21 -155 9 -49 17 -97 18 -105 1 -8 5 -22 8 -30 3 -8 9 -40 12
-70 9 -72 10 -81 18 -105 4 -11 9 -54 12 -95 3 -41 8 -88 12 -105 11 -48 15
-476 5 -489 -26 -32 -43 -164 -41 -316 1 -85 5 -159 10 -165 4 -5 10 -41 13
-80 6 -78 10 -103 19 -125 3 -8 8 -97 10 -196 3 -149 6 -186 20 -207 60 -93
68 -129 47 -226 -9 -41 -9 -56 0 -61 7 -4 9 -16 6 -28 -4 -11 -2 -23 3 -26 5
-4 9 -19 9 -34 0 -15 7 -65 17 -112 18 -87 16 -149 -6 -218 -11 -35 -17 -49
-53 -134 -9 -20 -16 -43 -16 -51 0 -8 -7 -20 -15 -27 -8 -7 -15 -17 -15 -23 0
-14 -88 -115 -111 -127 -14 -8 -28 -4 -61 17 -24 15 -53 33 -65 39 -59 32 -88
49 -93 55 -3 3 -25 19 -50 36 -71 49 -150 130 -151 155 -1 13 -2 34 -3 48 -1
21 -6 25 -30 25 -39 0 -66 -45 -59 -93 6 -35 94 -140 138 -164 12 -7 57 -37
98 -65 42 -29 78 -53 81 -53 3 0 40 -24 83 -53 43 -29 85 -57 93 -60 8 -4 42
-28 75 -53 75 -56 250 -174 260 -174 4 0 31 -20 59 -45 29 -25 56 -45 60 -45
4 0 29 -18 55 -40 26 -22 51 -40 55 -40 10 0 290 -211 294 -222 2 -4 8 -8 14
-8 6 0 27 -14 48 -30 21 -17 41 -30 45 -30 6 0 30 -18 169 -128 30 -23 58 -42
61 -42 4 0 24 -13 45 -30 21 -16 42 -30 48 -30 6 0 12 -4 14 -8 2 -5 41 -38
88 -74 47 -36 96 -78 109 -92 14 -14 30 -26 37 -26 6 0 17 -7 24 -15 19 -23
50 -19 50 6 0 14 -56 77 -172 190 -94 93 -175 169 -180 169 -4 0 -52 41 -105
91 -54 50 -109 98 -123 107 -14 9 -71 60 -128 114 -56 54 -108 98 -115 98 -20
0 -327 314 -327 334 0 14 31 41 47 41 14 0 28 9 146 97 94 71 120 98 123 133
3 26 -12 121 -36 230 -12 53 -13 56 -54 147 -30 66 -32 99 -10 219 15 81 15
93 0 137 -26 81 -29 149 -12 250 9 50 16 136 16 190 0 60 4 102 11 109 16 16
16 150 0 166 -17 17 -15 516 3 542 38 56 57 194 62 460 3 124 11 258 19 308 8
48 15 138 15 200 0 61 5 130 10 152 5 22 14 80 20 130 6 49 15 94 21 101 5 6
7 19 3 27 -3 9 -2 22 2 29 5 7 9 33 11 58 1 25 6 63 12 85 5 22 11 72 12 110
4 79 24 128 71 170 26 23 40 28 84 28 46 0 118 -23 134 -42 3 -3 14 -11 25
-17 21 -11 104 -113 105 -128 0 -4 14 -25 30 -46 17 -21 30 -41 30 -45 0 -4
13 -24 29 -44 15 -20 30 -41 32 -48 2 -6 37 -48 78 -92 52 -57 80 -98 93 -133
20 -59 48 -92 98 -118 46 -24 86 -78 141 -190 12 -25 32 -58 44 -75 12 -16 26
-41 30 -55 7 -23 29 -63 63 -115 6 -11 15 -27 18 -35 3 -8 10 -22 15 -30 5 -8
12 -22 16 -30 3 -8 30 -51 59 -95 28 -44 55 -96 58 -115 4 -19 11 -44 16 -55
5 -11 14 -41 19 -67 6 -27 16 -69 22 -95 5 -27 14 -57 19 -68 5 -11 11 -42 14
-69 4 -28 17 -82 30 -120 13 -39 33 -102 45 -141 12 -38 27 -75 33 -82 5 -7 7
-16 4 -21 -3 -6 1 -15 9 -22 8 -7 15 -20 15 -29 0 -9 4 -21 10 -27 5 -5 25
-53 44 -107 28 -80 34 -113 35 -190 1 -78 6 -100 29 -147 25 -51 27 -65 29
-190 0 -74 4 -142 8 -151 3 -9 5 -20 4 -25 -1 -5 0 -16 4 -24 5 -13 14 -63 21
-111 4 -27 38 -93 70 -133 16 -22 39 -55 49 -75 11 -20 30 -50 43 -68 13 -17
24 -36 24 -41 0 -12 67 -72 79 -72 5 0 14 7 21 15 7 8 25 15 41 15 15 0 50 8
76 19 30 11 62 16 86 13 44 -5 44 -20 1 -41 -44 -22 -63 -31 -132 -68 -34 -18
-68 -33 -75 -33 -8 0 -28 -18 -46 -41 -33 -40 -89 -71 -181 -98 -25 -8 -79
-26 -120 -41 -41 -16 -111 -40 -155 -55 -86 -28 -95 -32 -166 -64 -25 -12 -51
-21 -57 -21 -7 0 -20 -4 -30 -9 -9 -5 -39 -17 -67 -26 -27 -9 -59 -20 -70 -25
-11 -5 -49 -18 -85 -29 -149 -46 -220 -80 -220 -106 0 -32 40 -26 170 25 30
12 80 28 110 35 89 22 263 73 385 113 58 19 110 34 130 37 6 0 17 4 25 7 60
25 386 130 430 139 30 6 96 23 145 39 104 33 307 81 445 105 52 9 142 25 200
35 127 24 162 29 220 35 25 3 79 11 120 20 41 8 93 14 115 15 22 0 56 4 75 10
66 18 423 48 605 51 66 1 125 6 131 10 5 4 77 11 160 14 82 4 163 8 179 11
189 25 230 51 223 145 -4 54 -21 57 -46 10 -11 -23 -33 -43 -62 -58 -43 -21
-57 -22 -255 -23 -153 0 -232 -4 -293 -16 -91 -19 -144 -12 -150 20 -7 33 8
65 35 78 33 16 57 61 49 92 -6 24 -63 56 -101 56 -32 0 -48 26 -78 125 -14 44
-31 103 -40 130 -8 28 -32 88 -52 135 -20 47 -49 120 -65 163 -15 43 -31 81
-34 84 -3 4 -6 13 -6 21 0 8 -7 30 -16 50 -9 21 -22 51 -29 67 -14 30 -84 255
-104 332 -14 50 -59 150 -72 158 -5 4 -9 19 -9 34 0 15 -7 36 -15 47 -8 10
-15 27 -15 36 0 16 -19 67 -41 110 -5 10 -9 23 -9 29 0 6 -6 25 -14 42 -8 18
-31 84 -52 147 -20 63 -41 119 -46 125 -4 5 -8 17 -8 27 0 10 -4 26 -10 36
-16 30 -37 85 -59 157 -12 39 -26 79 -31 90 -4 11 -16 45 -26 75 -10 30 -23
62 -30 70 -6 8 -15 31 -19 50 -4 19 -11 40 -15 45 -4 6 -10 21 -13 35 -9 41
-43 132 -67 181 -5 9 -12 33 -15 53 -4 20 -11 39 -16 42 -5 3 -9 12 -9 21 0 8
-6 29 -13 46 -19 44 -37 95 -48 137 -10 35 -13 44 -43 112 -9 20 -16 41 -16
46 0 6 -6 23 -14 39 -15 30 -35 86 -41 116 -8 34 -57 172 -69 192 -6 11 -20
47 -30 80 -10 33 -24 75 -32 93 -8 18 -14 39 -14 47 0 7 -6 26 -14 42 -24 46
-46 100 -46 112 0 6 -4 19 -9 29 -5 9 -18 46 -29 82 -34 105 -51 154 -62 172
-6 10 -10 25 -10 33 0 8 -4 23 -9 33 -5 9 -22 52 -37 95 -15 43 -31 80 -35 83
-5 3 -9 15 -9 27 0 27 -35 127 -66 190 -8 16 -14 33 -14 39 0 5 -6 24 -13 41
-23 54 -39 100 -46 137 -4 19 -13 45 -19 58 -27 51 -32 62 -32 73 0 6 -6 25
-14 42 -8 18 -22 57 -31 87 -10 30 -24 70 -31 88 -8 18 -14 37 -14 43 0 12
-24 68 -46 111 -8 14 -14 33 -14 42 0 8 -6 30 -14 48 -7 18 -21 58 -31 88 -9
30 -21 64 -26 75 -5 11 -18 47 -28 80 -34 102 -52 150 -62 160 -5 5 -9 15 -9
23 0 7 -15 44 -33 80 l-32 67 5 205 c5 208 1 254 -34 350 -9 24 -23 55 -31 67
-8 12 -19 61 -25 110 -7 60 -16 96 -30 115 -11 15 -20 31 -20 35 0 5 -21 32
-47 62 -31 36 -67 63 -111 85 -68 32 -93 64 -122 151 -15 46 -55 58 -82 25
-24 -30 -22 -45 12 -109 16 -29 26 -60 23 -68 -3 -7 -23 -23 -44 -34 -68 -34
-66 -100 5 -176 l46 -48 -1 -177 c0 -175 0 -176 -24 -192 -15 -10 -26 -12 -30
-6 -3 6 -12 10 -20 10 -7 0 -43 18 -79 40 -36 22 -72 40 -79 40 -8 0 -17 3
-20 7 -4 3 -43 19 -87 33 -45 15 -86 32 -92 38 -7 7 -20 12 -29 12 -9 0 -22 7
-29 15 -7 8 -18 15 -24 15 -6 0 -38 25 -71 55 -33 30 -64 55 -68 55 -5 0 -23
11 -40 24 -43 32 -144 74 -197 83 -8 1 -44 9 -80 17 -83 20 -194 20 -292 1
-43 -8 -111 -15 -150 -16 -40 -1 -76 -6 -80 -12 -4 -7 -12 -4 -22 6 -9 9 -23
14 -31 11 -8 -3 -22 2 -31 11 -24 24 -85 61 -114 69 -61 19 -111 50 -127 79
-24 46 -13 179 18 232 33 56 34 163 2 218 -13 21 -23 47 -23 57 0 10 -5 22
-10 25 -6 4 -9 12 -8 18 2 7 -2 26 -8 42 -6 17 -19 55 -29 85 -26 83 -53 136
-97 192 -55 69 -162 120 -263 124 -38 2 -83 0 -100 -5z m1621 -1989 c8 -8 79
-32 114 -39 8 -2 44 -6 80 -9 37 -3 82 -14 104 -26 30 -16 67 -23 157 -28 112
-8 255 -32 290 -50 28 -14 234 -7 252 9 9 7 24 10 33 7 9 -4 23 -1 31 5 18 16
39 -12 47 -65 4 -21 16 -59 28 -85 45 -99 57 -132 74 -197 9 -37 31 -100 49
-138 34 -73 41 -93 74 -208 11 -37 30 -86 41 -110 26 -53 46 -111 55 -161 3
-21 23 -75 44 -121 21 -45 42 -97 46 -116 11 -54 26 -100 55 -165 28 -62 47
-117 76 -220 9 -33 20 -64 24 -70 17 -24 68 -163 74 -201 3 -22 21 -74 40
-115 19 -41 43 -106 52 -145 10 -38 35 -106 55 -151 21 -45 48 -117 59 -160
11 -43 26 -91 34 -108 39 -83 51 -119 76 -215 7 -25 27 -78 46 -118 19 -40 34
-80 34 -87 0 -8 4 -16 9 -19 5 -4 12 -25 16 -49 4 -23 26 -89 50 -147 23 -58
48 -127 54 -155 7 -27 30 -91 51 -142 22 -51 46 -122 55 -159 8 -37 24 -83 34
-103 40 -79 56 -122 81 -216 10 -38 31 -97 48 -130 16 -33 37 -93 46 -133 10
-41 28 -95 41 -120 46 -94 55 -118 74 -200 11 -46 24 -89 29 -95 18 -24 61
-137 78 -203 9 -37 32 -100 51 -140 18 -40 38 -98 44 -130 6 -31 28 -94 49
-139 21 -45 45 -106 54 -136 19 -63 75 -207 117 -299 42 -92 42 -111 2 -122
-41 -11 -67 -56 -54 -90 16 -42 39 -53 110 -53 l65 0 10 -33 c7 -26 6 -36 -5
-43 -8 -5 -94 -9 -191 -9 -108 0 -213 -6 -265 -14 -49 -8 -131 -18 -183 -21
-52 -3 -134 -8 -181 -11 -78 -5 -91 -4 -141 20 -30 14 -59 26 -65 26 -18 0
-54 47 -48 62 4 9 2 19 -4 23 -6 3 -11 16 -11 29 0 12 -14 35 -32 52 -36 32
-94 74 -103 74 -3 0 -29 17 -58 39 -29 21 -72 50 -97 63 -150 83 -176 110
-185 189 -3 30 -5 63 -6 74 0 10 -4 24 -8 30 -5 5 -11 43 -15 84 -3 41 -10 79
-15 85 -4 6 -11 29 -14 50 -4 22 -23 64 -44 95 l-38 56 0 121 c0 73 4 126 11
135 17 22 8 98 -15 130 -12 15 -21 37 -21 48 0 11 -5 23 -11 27 -6 3 -9 15 -6
25 3 10 -2 24 -9 30 -8 7 -13 18 -10 26 5 12 -3 69 -33 248 -27 165 -93 361
-145 433 -5 7 -19 42 -32 79 -13 36 -28 71 -34 77 -5 5 -10 18 -10 28 0 10 -4
18 -9 18 -5 0 -25 51 -45 113 -20 61 -43 128 -50 147 -7 19 -53 157 -101 305
-48 149 -93 284 -100 300 -7 17 -20 46 -29 67 -9 20 -16 41 -16 47 0 7 -7 23
-16 36 -9 14 -13 25 -9 25 4 0 1 10 -7 23 -8 12 -17 50 -20 84 -8 80 -32 145
-78 208 -46 62 -58 94 -66 170 -10 98 -10 101 -16 111 -3 5 -9 32 -13 61 -4
29 -13 57 -21 64 -8 6 -14 17 -14 24 0 7 -16 27 -35 44 -19 17 -35 37 -35 45
0 8 -5 18 -10 21 -6 4 -9 14 -6 23 2 10 7 40 11 67 6 45 3 54 -19 78 -14 16
-26 33 -26 38 0 6 -8 23 -19 37 -10 15 -24 45 -31 66 -8 24 -41 70 -86 118
-41 43 -74 85 -74 92 0 8 -6 19 -14 25 -8 7 -18 27 -22 44 -3 18 -10 37 -14
42 -4 6 -11 26 -15 45 -7 32 -15 52 -37 90 -4 8 -12 25 -18 37 -5 12 -31 46
-59 76 -40 46 -51 66 -61 114 -16 83 -51 195 -67 214 -7 8 -13 22 -13 30 0 8
-7 22 -14 32 -10 12 -14 54 -15 140 -2 123 -8 183 -21 202 -9 14 -13 149 -5
185 5 21 13 30 33 33 15 2 29 5 33 6 3 0 9 -3 15 -7z"/>
</g>
</svg>
