<?xml version="1.0" standalone="no"?>
<!DOCTYPE svg PUBLIC "-//W3C//DTD SVG 20010904//EN"
 "http://www.w3.org/TR/2001/REC-SVG-20010904/DTD/svg10.dtd">
<svg version="1.0" xmlns="http://www.w3.org/2000/svg"
 width="1000.000000pt" height="1000.000000pt" viewBox="0 0 1000.000000 1000.000000"
 preserveAspectRatio="xMidYMid meet">
<metadata>
Created by potrace 1.15, written by Peter Selinger 2001-2017
</metadata>
<g transform="translate(0.000000,1000.000000) scale(0.100000,-0.100000)"
fill="#000000" stroke="none">
<path d="M5773 8755 c-29 -8 -71 -24 -93 -35 -21 -11 -47 -20 -57 -20 -40 0
-164 -124 -175 -174 -3 -17 -12 -49 -18 -71 -6 -22 -15 -62 -20 -90 -5 -27
-17 -70 -26 -94 -14 -36 -15 -50 -5 -77 22 -60 -8 -117 -80 -154 -20 -11 -41
-32 -48 -48 -14 -34 -40 -48 -107 -57 -138 -18 -266 -60 -422 -139 -113 -57
-282 -235 -334 -352 -26 -61 -95 -172 -129 -209 -15 -16 -39 -55 -54 -85 -15
-30 -47 -82 -70 -115 -24 -33 -54 -82 -68 -110 -14 -27 -40 -64 -56 -82 -40
-41 -98 -173 -109 -248 -8 -46 -15 -63 -36 -78 -27 -20 -83 -120 -106 -190 -8
-26 -43 -70 -107 -135 -60 -61 -104 -116 -119 -147 -13 -28 -38 -64 -55 -80
-17 -17 -41 -51 -54 -78 -13 -26 -42 -69 -65 -97 -29 -35 -47 -70 -61 -120
-11 -38 -27 -82 -35 -97 -7 -16 -14 -33 -14 -38 0 -6 -26 -39 -57 -72 -32 -34
-119 -133 -193 -220 -123 -144 -327 -363 -374 -402 -11 -9 -38 -32 -60 -51
-23 -20 -68 -53 -101 -74 -33 -21 -85 -65 -115 -97 l-55 -59 -85 -9 c-47 -5
-166 -19 -265 -30 -99 -10 -232 -22 -295 -26 -63 -3 -187 -15 -275 -25 -88
-11 -216 -24 -285 -30 -383 -31 -488 -40 -515 -45 -32 -5 -193 -19 -397 -35
-180 -13 -178 -13 -178 -68 l0 -45 77 7 c626 54 1033 86 1095 86 43 0 126 7
185 15 59 8 173 19 253 25 293 21 426 31 453 35 16 3 37 0 48 -5 47 -26 4 -78
-105 -129 -38 -17 -76 -40 -83 -51 -22 -31 -42 -38 -154 -55 -194 -30 -251
-45 -357 -98 -74 -37 -124 -71 -175 -118 -40 -36 -97 -82 -129 -102 -31 -20
-92 -68 -135 -107 -43 -39 -107 -97 -143 -130 -36 -32 -85 -74 -110 -93 -25
-19 -68 -60 -97 -92 -40 -44 -56 -56 -70 -50 -27 10 -131 25 -183 25 -27 0
-58 -8 -76 -19 -17 -10 -48 -21 -70 -24 -21 -3 -59 -10 -84 -14 l-45 -8 0
-125 c0 -69 4 -137 8 -152 4 -16 24 -39 46 -53 43 -29 40 -14 60 -285 13 -165
30 -296 48 -363 23 -80 16 -86 -112 -87 -151 -2 -145 1 -145 -85 l0 -73 322
-6 c178 -3 640 -8 1028 -11 388 -3 1196 -10 1795 -15 936 -8 1113 -8 1255 5
202 18 246 26 345 61 92 33 150 75 267 197 98 102 122 142 94 162 -27 20 -48
9 -130 -68 -102 -97 -141 -128 -207 -164 -89 -50 -172 -81 -241 -92 -120 -20
-1110 -33 -1382 -19 -78 4 -285 7 -461 8 -176 1 -365 6 -420 12 -55 5 -138 12
-185 14 -47 2 -190 9 -318 15 -129 6 -399 15 -600 19 -202 5 -390 13 -418 17
-58 10 -125 57 -150 105 -37 72 18 321 102 458 8 14 25 48 38 75 24 51 159
186 230 230 89 54 130 82 149 99 12 10 45 29 72 42 28 13 88 44 134 69 47 25
92 45 101 45 8 0 25 6 36 14 11 8 41 23 65 32 24 10 56 26 71 36 14 10 36 18
48 18 12 0 49 11 83 24 99 38 216 73 299 90 42 9 87 20 100 24 12 5 55 14 93
21 199 33 302 63 365 106 25 17 110 76 190 131 80 55 159 106 177 113 18 7 38
20 44 28 7 8 31 24 53 35 23 11 66 36 96 55 194 122 245 153 256 153 7 0 25
11 41 24 15 13 69 46 118 75 50 28 122 72 160 96 39 24 113 59 166 76 l96 32
99 -42 c55 -24 135 -60 179 -81 44 -20 114 -52 155 -70 73 -32 278 -132 406
-198 73 -37 177 -129 191 -169 23 -63 33 -101 33 -119 0 -24 45 -96 89 -144
l33 -35 -7 -85 c-3 -47 -12 -139 -20 -205 -24 -193 -18 -272 40 -505 55 -222
75 -416 64 -616 -5 -99 -13 -157 -28 -198 -16 -45 -20 -81 -19 -164 0 -92 -2
-107 -18 -119 -16 -12 -96 -14 -494 -9 -603 8 -2287 9 -2331 2 -19 -3 -51 -8
-71 -11 -48 -8 -70 -41 -36 -54 13 -5 345 -11 738 -15 1443 -12 1922 -17 2230
-21 173 -3 835 -7 1470 -10 635 -2 1421 -7 1745 -10 627 -6 898 2 1005 31 113
29 201 91 348 243 118 121 139 171 74 171 -22 0 -47 -17 -105 -73 -171 -163
-306 -246 -434 -266 -40 -6 -525 -8 -1354 -4 -1237 6 -1293 7 -1311 25 -10 10
-18 30 -18 44 0 60 -65 114 -193 159 -184 66 -211 77 -291 117 -44 22 -110 66
-146 97 -36 32 -78 68 -94 82 -57 47 -68 60 -61 77 3 9 13 53 21 97 9 44 24
112 35 150 11 39 26 99 35 135 8 36 24 99 36 140 11 41 33 131 49 200 15 69
35 152 44 185 9 33 21 76 25 95 5 19 20 73 33 120 14 47 30 108 37 135 7 28
23 91 36 140 12 50 28 115 35 145 6 30 17 75 24 100 7 25 18 77 25 115 6 39
23 117 36 175 13 58 38 168 54 245 38 178 68 302 91 385 10 36 21 83 25 105 3
22 14 67 25 100 10 33 26 96 34 140 8 44 22 112 31 150 8 39 19 88 24 110 5
22 14 58 20 80 6 22 15 63 20 90 10 54 54 264 69 330 6 22 14 63 19 90 11 62
58 245 78 304 8 25 22 86 29 135 8 50 19 109 24 131 79 336 106 442 114 453 5
7 29 21 53 31 45 20 143 114 161 154 37 82 52 151 53 247 0 126 -47 169 -171
157 -120 -13 -155 -35 -223 -141 -20 -33 -41 -53 -61 -59 -16 -5 -43 -22 -60
-38 -30 -28 -188 -89 -232 -89 -12 0 -42 -8 -65 -19 -125 -55 -239 -72 -481
-74 -208 -2 -209 -2 -228 22 -28 34 -24 47 27 96 37 37 45 51 44 77 -1 18 -2
39 -1 46 1 18 44 15 121 -9 66 -20 70 -20 106 -3 35 17 94 85 94 108 0 17 76
96 92 96 33 0 53 40 59 119 4 57 13 94 33 135 19 39 27 67 23 89 -2 18 2 49 9
71 8 21 14 59 14 85 0 34 8 57 30 90 17 24 30 51 30 60 0 29 -60 135 -93 163
-48 41 -206 133 -252 146 -158 44 -201 48 -282 27z m1054 -1657 c-7 -84 -56
-355 -82 -453 -13 -49 -26 -110 -30 -135 -3 -25 -10 -56 -14 -70 -10 -28 -17
-62 -61 -275 -18 -82 -38 -172 -45 -200 -24 -87 -74 -317 -90 -405 -8 -47 -21
-112 -29 -145 -24 -103 -48 -208 -61 -270 -7 -33 -20 -89 -28 -125 -9 -36 -23
-99 -32 -140 -9 -41 -20 -93 -25 -115 -5 -22 -16 -74 -25 -115 -33 -153 -49
-217 -70 -290 -13 -41 -30 -111 -40 -155 -9 -44 -26 -111 -37 -150 -11 -38
-26 -92 -33 -120 -8 -27 -23 -81 -34 -120 -11 -38 -30 -115 -41 -170 -23 -107
-74 -301 -92 -350 -6 -16 -18 -70 -28 -120 -23 -119 -90 -397 -109 -450 -6
-16 -18 -55 -26 -86 -19 -69 -39 -99 -55 -83 -23 22 6 714 34 844 17 75 35
166 56 269 6 30 13 116 17 191 6 129 5 139 -21 212 -14 42 -26 85 -27 95 -1
10 -25 63 -54 118 -28 55 -88 172 -133 261 -44 88 -115 212 -158 275 -72 106
-256 337 -321 403 -15 16 -55 59 -88 96 -33 36 -106 108 -162 159 -98 89 -103
95 -103 133 0 23 4 57 9 77 5 20 17 70 26 112 15 71 19 79 78 136 34 34 85 73
112 87 73 39 132 83 158 119 13 18 52 97 86 177 35 80 69 156 77 170 8 14 27
47 42 74 15 26 44 70 64 96 l37 48 128 6 c338 18 369 22 431 60 31 19 131 71
222 117 91 45 190 97 220 114 30 18 93 50 140 70 47 20 103 45 125 56 22 10
53 19 68 19 29 0 29 0 24 -52z"/>
</g>
</svg>
